<?xml version="1.0" standalone="no"?>
<!DOCTYPE svg PUBLIC "-//W3C//DTD SVG 20010904//EN"
 "http://www.w3.org/TR/2001/REC-SVG-20010904/DTD/svg10.dtd">
<svg version="1.0" xmlns="http://www.w3.org/2000/svg"
 width="843.000000pt" height="286.000000pt" viewBox="0 0 843.000000 286.000000"
 preserveAspectRatio="xMidYMid meet">

<g transform="translate(0.000000,286.000000) scale(0.100000,-0.100000)"
fill="#000000" stroke="none">
<path d="M1520 2780 c-347 -34 -671 -205 -891 -470 -86 -104 -127 -181 -135
-255 l-7 -59 42 31 c25 19 70 72 109 132 226 339 545 534 939 572 267 26 594
-54 826 -203 77 -49 65 -26 -15 29 -185 127 -387 199 -622 222 -118 12 -133
12 -246 1z"/>
<path d="M1522 2680 c-345 -49 -667 -254 -818 -520 l-26 -45 27 35 c72 91 244
247 330 297 100 60 265 127 364 149 89 21 347 29 437 15 115 -18 242 -58 357
-114 l107 -53 42 17 42 16 -44 28 c-109 69 -248 126 -380 156 -98 23 -338 33
-438 19z"/>
<path d="M2505 2429 c-490 -153 -488 -152 -468 -167 10 -7 53 -34 96 -59 42
-24 77 -49 77 -54 0 -17 -177 -252 -254 -339 -359 -400 -759 -630 -1095 -630
-93 0 -163 19 -222 61 l-44 32 33 -36 c41 -43 107 -79 187 -103 95 -28 272
-25 405 8 254 64 510 195 755 388 90 71 351 331 405 403 19 25 37 47 40 47 3
0 42 -34 87 -75 l82 -75 5 52 c7 69 37 581 33 583 -1 1 -56 -15 -122 -36z"/>
<path d="M2700 2227 c0 -64 4 -79 28 -114 15 -22 46 -57 70 -78 l42 -37 0 34
c0 61 -27 127 -81 199 -29 38 -54 69 -56 69 -2 0 -3 -33 -3 -73z"/>
<path d="M912 1732 l3 -487 39 3 c22 2 50 8 63 13 l24 9 -2 418 -3 417 33 -3
c38 -4 164 -41 231 -68 120 -48 261 -153 320 -239 25 -36 30 -54 32 -119 l3
-76 48 41 c40 34 47 46 47 77 1 20 7 48 14 61 23 41 114 126 184 171 43 28 83
64 109 99 23 31 40 58 37 60 -2 2 -47 -17 -99 -42 -111 -54 -195 -115 -255
-187 l-42 -50 -27 37 c-83 114 -248 220 -439 282 -78 26 -148 42 -295 66 l-27
5 2 -488z"/>
<path d="M3390 2115 l0 -65 120 0 120 0 0 -160 c0 -173 -9 -218 -51 -240 -34
-19 -96 -6 -140 29 l-38 31 -40 -52 -40 -53 31 -32 c84 -86 297 -87 375 -2 51
56 56 87 61 357 l4 252 -201 0 -201 0 0 -65z"/>
<path d="M3930 1850 l0 -330 80 0 80 0 0 330 0 330 -80 0 -80 0 0 -330z"/>
<path d="M4174 2143 c3 -21 6 -50 6 -65 l0 -28 105 0 105 0 0 -265 0 -265 80
0 80 0 0 265 0 265 105 0 105 0 0 65 0 65 -296 0 -297 0 7 -37z"/>
<path d="M4840 1968 c0 -251 3 -272 44 -341 56 -94 187 -140 328 -117 92 16
153 57 193 130 l30 55 3 243 4 242 -81 0 -81 0 0 -215 c0 -236 -6 -269 -56
-302 -38 -25 -129 -24 -168 2 -50 34 -56 63 -56 300 l0 215 -80 0 -80 0 0
-212z"/>
<path d="M5860 1849 l0 -330 243 3 242 3 49 29 c36 21 53 39 68 74 34 77 8
175 -57 213 l-33 20 28 28 c64 63 59 166 -10 232 -54 51 -97 59 -329 59 l-201
0 0 -331z m406 178 c13 -16 24 -34 24 -42 0 -8 -11 -26 -24 -42 -23 -27 -28
-28 -135 -31 l-111 -4 0 77 0 77 111 -4 c107 -3 112 -4 135 -31z m18 -258 c18
-14 26 -30 26 -52 0 -65 -28 -77 -174 -77 l-116 0 0 75 0 75 119 0 c105 0 121
-2 145 -21z"/>
<path d="M6580 1850 l0 -330 80 0 79 0 3 133 3 132 144 0 144 0 -2 -132 -2
-133 80 0 81 0 0 330 0 330 -79 0 -78 0 1 -124 1 -124 -140 -4 c-77 -3 -143
-3 -147 -1 -5 2 -8 60 -8 129 l0 124 -79 0 -80 0 -1 -330z"/>
<path d="M7517 2098 c-19 -46 -85 -195 -146 -331 -61 -137 -111 -249 -111
-250 0 -1 38 -1 84 1 l84 3 23 57 c12 31 27 63 32 70 7 9 47 12 159 10 l150
-3 27 -65 28 -65 90 -3 91 -3 -18 38 c-27 54 -210 453 -251 545 l-34 78 -86 0
-87 0 -35 -82z m174 -200 l47 -113 -95 -3 c-53 -1 -97 -1 -99 1 -2 2 17 56 43
120 26 64 49 115 51 112 3 -3 26 -55 53 -117z"/>
<path d="M8100 1850 l0 -330 80 0 80 0 0 330 0 330 -80 0 -80 0 0 -330z"/>
<path d="M2897 2089 c-10 -78 -8 -159 3 -198 5 -19 8 -36 6 -38 -2 -2 -18 19
-36 47 -31 48 -84 89 -138 105 -23 7 -23 6 8 -55 17 -35 52 -80 77 -103 26
-23 64 -58 85 -78 l38 -37 6 27 c3 14 11 42 17 61 26 86 3 237 -46 305 -12 16
-15 12 -20 -36z"/>
<path d="M397 2077 c-50 -104 -53 -172 -16 -309 l10 -39 47 43 c92 85 135 134
159 181 13 27 22 51 19 54 -3 3 -25 -5 -50 -17 -43 -20 -83 -58 -116 -109 -14
-21 -15 -15 -12 80 2 57 0 120 -5 139 l-9 35 -27 -58z"/>
<path d="M710 2013 c-2 -58 1 -758 3 -760 2 -1 29 -5 60 -9 l57 -7 0 392 0
391 -60 0 c-33 0 -60 -3 -60 -7z"/>
<path d="M280 1789 c-21 -88 -9 -185 36 -278 35 -74 40 -80 49 -59 5 13 29 49
54 82 42 56 100 181 101 219 1 48 -110 -59 -138 -134 l-21 -54 0 42 c-1 56
-19 136 -43 189 -10 24 -21 44 -22 44 -2 0 -10 -23 -16 -51z"/>
<path d="M3016 1803 c-24 -54 -46 -141 -47 -188 l0 -40 -14 37 c-7 20 -21 48
-31 64 -18 26 -89 84 -105 84 -10 0 18 -94 43 -145 12 -21 37 -62 58 -90 20
-27 40 -59 44 -70 6 -16 12 -11 38 35 50 88 61 131 56 228 -2 48 -9 95 -14
105 -9 16 -12 14 -28 -20z"/>
<path d="M233 1448 c6 -105 32 -169 102 -249 27 -29 51 -55 54 -57 4 -1 11 17
18 40 6 24 23 76 38 117 16 44 29 105 32 150 l6 76 -27 -24 c-36 -34 -86 -137
-87 -180 0 -35 -1 -35 -11 -11 -40 93 -80 169 -103 195 l-26 30 4 -87z"/>
<path d="M3065 1495 c-14 -20 -44 -73 -65 -118 -37 -77 -39 -80 -40 -46 0 53
-72 179 -102 179 -23 0 6 -166 46 -258 13 -31 27 -70 31 -85 l6 -28 50 58 c74
84 102 150 107 251 3 45 2 82 -1 82 -2 0 -17 -16 -32 -35z"/>
<path d="M2526 1445 c-17 -148 -68 -260 -154 -335 -33 -30 -68 -48 -138 -70
-52 -16 -100 -30 -107 -30 -7 0 -44 -15 -82 -33 -81 -39 -161 -119 -187 -186
l-17 -42 40 36 c162 146 324 56 265 -147 -17 -59 -80 -164 -129 -215 -17 -18
-27 -33 -23 -33 4 0 47 20 95 45 258 133 408 359 457 688 17 113 15 277 -4
357 -8 33 -9 30 -16 -35z"/>
<path d="M2135 1327 c-57 -57 -59 -132 -4 -186 54 -55 129 -53 186 4 29 29 33
39 33 85 0 47 -4 56 -39 91 -35 35 -44 39 -91 39 -46 0 -56 -4 -85 -33z"/>
<path d="M5602 1318 c-71 -11 -122 -38 -169 -92 -67 -76 -87 -200 -50 -298 24
-62 109 -140 178 -163 101 -34 229 -8 303 62 l29 27 -43 37 -44 38 -32 -29
c-84 -73 -217 -41 -265 65 -25 54 -24 102 4 155 51 102 179 128 266 54 l30
-25 43 39 43 40 -25 22 c-67 57 -168 83 -268 68z"/>
<path d="M7969 1320 c-61 -11 -116 -40 -160 -87 -50 -52 -70 -96 -76 -163 -11
-121 43 -225 147 -284 51 -29 62 -31 155 -31 91 0 105 3 160 30 l60 30 0 115
0 115 -57 3 -58 3 0 -85 0 -84 -31 -11 c-103 -36 -226 27 -245 123 -31 169
137 283 279 190 l38 -25 39 31 c22 18 40 36 40 41 0 15 -81 69 -119 78 -60 15
-124 19 -172 11z"/>
<path d="M3481 1289 c-123 -62 -178 -199 -137 -342 55 -188 322 -261 475 -130
l44 37 -43 37 -43 37 -44 -32 c-106 -74 -253 -13 -270 113 -12 92 30 165 112
197 38 14 52 15 92 5 27 -7 62 -23 79 -36 l31 -24 38 39 c38 39 39 40 19 61
-39 44 -112 69 -205 69 -76 0 -93 -4 -148 -31z"/>
<path d="M4170 1311 c-47 -15 -85 -39 -121 -78 -60 -62 -73 -97 -74 -193 0
-76 3 -91 30 -139 58 -104 156 -156 285 -149 118 7 197 56 248 153 21 40 26
64 26 125 1 94 -15 141 -67 198 -63 67 -106 85 -212 89 -49 1 -101 -1 -115 -6z
m142 -101 c151 -42 176 -254 39 -327 -56 -29 -106 -29 -162 0 -133 70 -116
271 28 322 47 17 49 17 95 5z"/>
<path d="M4860 1228 c-24 -51 -53 -118 -66 -148 -12 -30 -47 -110 -78 -178
-31 -68 -56 -128 -56 -133 0 -5 29 -9 64 -9 l64 0 24 60 23 60 131 0 132 0 22
-60 22 -60 69 0 c53 0 67 3 63 13 -3 8 -58 133 -123 278 l-117 264 -65 3 -66
3 -43 -93z m154 -151 c20 -49 33 -93 30 -98 -4 -8 -151 -2 -161 6 -2 1 12 37
30 81 19 43 37 88 41 98 9 27 17 15 60 -87z"/>
<path d="M6046 1312 c-2 -4 -4 -130 -3 -280 l2 -272 63 0 62 0 0 115 0 115
125 0 125 0 0 -115 0 -115 65 0 65 0 0 280 0 280 -65 0 -65 0 0 -110 0 -110
-125 0 -125 0 0 110 0 110 -59 0 c-33 0 -62 -4 -65 -8z"/>
<path d="M6740 1040 l0 -280 63 0 62 0 -2 277 -2 278 -61 3 -60 3 0 -281z"/>
<path d="M7060 1040 l0 -280 63 0 62 0 -3 166 c-2 102 1 165 7 162 9 -3 185
-213 245 -291 27 -35 32 -37 82 -37 l54 0 0 280 0 281 -62 -3 -63 -3 2 -162
c1 -90 -1 -163 -5 -162 -4 0 -68 74 -141 165 l-135 164 -53 0 -53 0 0 -280z"/>
<path d="M1693 1264 l-43 -25 0 -265 c0 -145 -3 -264 -6 -264 -3 0 -29 21 -58
46 -134 121 -337 221 -503 249 -33 5 -43 11 -43 26 0 15 -7 19 -34 19 -18 0
-48 3 -65 6 l-31 7 0 -61 c0 -68 -3 -66 94 -77 149 -17 361 -101 494 -195 78
-55 93 -80 21 -35 -134 85 -352 144 -591 160 l-97 7 -3 105 -3 104 -55 19
c-30 11 -57 19 -60 20 -5 0 -6 -216 -2 -330 l2 -55 248 0 c247 0 247 0 365
-32 108 -30 186 -64 345 -154 l43 -24 20 24 c19 23 19 39 18 387 -1 200 -4
364 -8 364 -3 0 -25 -12 -48 -26z"/>
<path d="M459 1209 c-15 -31 -24 -68 -27 -122 l-5 -78 -27 48 c-26 46 -150
165 -150 145 0 -25 44 -151 66 -189 19 -34 107 -108 169 -145 12 -7 20 85 20
244 0 140 -11 164 -46 97z"/>
<path d="M2835 1233 c-15 -40 -17 -159 -5 -258 8 -58 16 -105 18 -105 2 0 20
12 40 27 68 49 123 108 147 154 23 45 58 159 48 159 -16 0 -128 -109 -149
-146 -14 -24 -27 -44 -28 -44 -1 0 -2 27 -3 59 -1 41 -9 78 -26 115 -14 31
-28 56 -30 56 -3 0 -8 -8 -12 -17z"/>
<path d="M550 964 c-15 -44 -15 -134 -1 -182 l10 -33 -39 39 c-22 22 -71 56
-110 76 l-70 37 10 -26 c38 -99 107 -173 198 -211 37 -15 76 -34 87 -41 29
-19 37 -16 21 10 -8 12 -19 68 -25 124 -9 84 -46 222 -65 241 -2 2 -10 -14
-16 -34z"/>
<path d="M2742 949 c-27 -63 -40 -122 -48 -214 -3 -44 -13 -91 -21 -104 -12
-19 -13 -23 -2 -18 195 83 237 115 288 216 17 33 31 63 31 66 0 15 -130 -65
-170 -105 l-46 -45 15 57 c13 47 13 67 3 114 -16 79 -27 87 -50 33z"/>
<path d="M2590 690 c-126 -174 -341 -323 -565 -393 -227 -70 -505 -67 -716 9
-162 58 -286 132 -429 255 -77 66 -81 68 -41 23 54 -62 97 -100 187 -169 393
-299 950 -306 1359 -17 96 67 183 156 205 208 18 42 51 144 47 144 -1 0 -22
-27 -47 -60z"/>
<path d="M729 591 c20 -37 2 -47 -60 -33 -29 7 -55 10 -58 6 -3 -3 39 -49 93
-101 478 -456 1193 -522 1743 -160 108 70 308 257 285 265 -6 2 -34 -4 -62
-12 -39 -12 -69 -32 -119 -79 -142 -133 -335 -239 -529 -289 -96 -25 -144 -31
-267 -35 -365 -12 -654 101 -939 369 -55 51 -94 82 -87 69z"/>
<path d="M3350 486 l0 -86 45 0 c25 0 45 5 45 10 0 6 -16 10 -35 10 -31 0 -35
3 -35 25 0 21 5 25 29 25 42 0 48 18 9 22 -25 2 -34 8 -36 26 -3 19 1 22 32
22 20 0 36 5 36 10 0 6 -13 10 -29 10 -16 0 -36 3 -45 6 -14 5 -16 -6 -16 -80z"/>
<path d="M3874 558 c-60 -29 -55 -133 7 -159 74 -30 134 53 94 130 -19 38 -59
50 -101 29z m74 -30 c21 -21 15 -85 -10 -102 -29 -20 -34 -20 -58 4 -22 22
-27 79 -8 98 7 7 24 12 38 12 14 0 31 -5 38 -12z"/>
<path d="M4254 561 c-2 -2 -4 -40 -4 -83 l0 -78 45 0 c52 0 61 17 13 22 -25 2
-34 8 -36 26 -3 19 1 22 32 22 45 0 48 18 4 22 -25 2 -34 8 -36 26 -3 19 1 22
32 22 22 0 36 5 36 13 0 11 -75 18 -86 8z"/>
<path d="M4388 564 c-5 -4 -8 -43 -8 -86 0 -64 3 -78 16 -78 12 0 15 8 12 33
-4 43 20 43 47 0 11 -18 26 -32 33 -33 10 0 8 9 -6 33 -18 28 -19 34 -6 51 18
25 18 50 0 65 -18 15 -79 25 -88 15z m76 -39 c6 -17 -19 -45 -40 -45 -9 0 -14
11 -14 30 0 25 4 30 24 30 13 0 26 -7 30 -15z"/>
<path d="M4825 558 c-32 -17 -45 -39 -45 -79 0 -61 29 -83 103 -80 25 1 27 4
27 41 0 22 -4 40 -9 40 -5 0 -16 3 -25 6 -10 4 -16 1 -16 -10 0 -10 6 -13 15
-10 11 5 15 -1 15 -21 0 -24 -3 -26 -32 -23 -45 4 -67 42 -47 84 12 24 21 29
57 32 43 3 55 15 26 26 -23 9 -46 7 -69 -6z"/>
<path d="M5425 558 c-2 -7 -6 -38 -7 -68 l-3 -55 -34 63 c-23 42 -40 62 -52
62 -17 0 -19 -9 -19 -80 0 -96 18 -108 22 -14 l3 66 38 -66 c46 -78 66 -85 69
-23 1 23 2 59 4 80 2 37 -12 61 -21 35z"/>
<path d="M5683 560 c-17 -7 -23 -18 -23 -40 0 -25 6 -33 35 -47 19 -9 36 -22
39 -29 8 -20 -30 -37 -53 -24 -13 7 -22 7 -26 0 -3 -6 6 -15 20 -20 33 -12 78
6 83 33 4 20 -24 57 -43 57 -7 0 -19 7 -26 16 -11 14 -11 18 4 29 10 7 27 11
37 8 24 -6 27 12 4 21 -19 7 -23 7 -51 -4z"/>
<path d="M6214 560 c-28 -11 -54 -48 -54 -77 0 -56 52 -103 99 -88 31 10 25
24 -9 23 -42 -1 -60 18 -60 63 0 46 28 71 71 62 34 -7 40 12 7 21 -28 7 -27 7
-54 -4z"/>
<path d="M6328 564 c-12 -11 -10 -164 2 -164 6 0 10 15 10 34 0 42 8 48 49 40
27 -6 31 -11 31 -40 0 -24 5 -34 15 -34 13 0 15 14 13 83 -3 83 -20 110 -26
42 -3 -35 -4 -36 -40 -33 -35 3 -37 5 -42 41 -3 22 -8 35 -12 31z"/>
<path d="M6500 486 c0 -51 4 -86 10 -86 6 0 10 33 10 79 0 44 -4 83 -10 86 -6
4 -10 -25 -10 -79z"/>
<path d="M6850 486 c0 -51 4 -86 10 -86 6 0 10 33 10 79 0 44 -4 83 -10 86 -6
4 -10 -25 -10 -79z"/>
<path d="M6920 485 c0 -50 4 -85 10 -85 6 0 10 29 10 68 l0 67 41 -67 c55 -93
69 -90 69 12 0 94 -18 108 -22 18 l-3 -63 -38 68 c-53 93 -67 89 -67 -18z"/>
<path d="M7144 560 c-50 -20 -66 -77 -39 -130 14 -28 20 -30 70 -30 l55 0 0
45 c0 43 -1 45 -30 45 -34 0 -40 -15 -10 -23 12 -3 20 -14 20 -25 0 -51 -83
-28 -88 25 -5 51 12 73 58 73 40 0 53 13 24 24 -20 8 -34 7 -60 -4z"/>
<path d="M7667 564 c-4 -4 -7 -43 -7 -86 l0 -78 51 0 c31 0 48 4 44 10 -3 6
-19 10 -34 10 -23 0 -30 5 -33 25 -5 23 -2 25 29 25 41 0 41 23 0 28 -41 5
-37 40 6 44 17 2 31 7 30 12 -3 11 -76 19 -86 10z"/>
<path d="M8093 563 c-6 -2 -22 -34 -34 -70 l-22 -67 -25 67 c-18 50 -29 67
-43 67 -17 0 -19 -8 -19 -80 0 -97 18 -107 22 -12 l3 67 23 -67 c13 -39 29
-68 37 -68 8 0 24 29 37 68 l23 67 3 -67 c4 -95 22 -85 22 11 0 79 -4 92 -27
84z"/>
<path d="M8182 554 c-33 -23 -25 -55 20 -79 23 -12 38 -27 38 -39 0 -15 -6
-17 -40 -14 -28 2 -40 0 -40 -9 0 -9 15 -13 45 -13 38 0 47 4 54 23 11 29 -4
56 -39 68 -53 19 -44 55 12 51 33 -3 37 13 6 22 -31 8 -31 8 -56 -10z"/>
<path d="M3480 480 c0 -47 4 -80 10 -80 6 0 10 30 11 68 l0 67 26 -67 c14 -38
31 -68 37 -68 7 0 20 26 31 58 27 83 35 85 35 9 0 -38 4 -67 10 -67 6 0 10 33
10 80 0 72 -2 80 -19 80 -14 0 -25 -17 -43 -67 l-25 -67 -22 67 c-18 52 -27
67 -42 67 -17 0 -19 -8 -19 -80z"/>
<path d="M3690 481 c0 -65 3 -81 15 -81 10 0 15 10 15 30 0 26 3 30 29 30 37
0 53 20 49 62 -3 32 -4 33 -55 36 l-53 3 0 -80z m88 35 c4 -20 -13 -36 -40
-36 -13 0 -18 8 -18 31 0 27 3 30 27 27 18 -2 29 -10 31 -22z"/>
<path d="M4010 551 c0 -4 4 -21 10 -37 5 -16 14 -48 20 -71 6 -25 17 -43 25
-43 8 0 19 17 25 43 21 84 25 85 44 19 10 -36 23 -62 30 -62 8 0 20 26 30 63
10 34 20 70 22 80 3 10 0 17 -9 17 -8 0 -19 -23 -28 -62 l-15 -63 -19 63 c-21
73 -40 80 -55 20 -21 -86 -27 -88 -40 -20 -8 40 -17 62 -26 62 -8 0 -14 -4
-14 -9z"/>
<path d="M4530 480 c0 -64 3 -80 15 -80 12 0 15 16 15 80 0 64 -3 80 -15 80
-12 0 -15 -16 -15 -80z"/>
<path d="M4600 480 c0 -64 3 -80 15 -80 12 0 14 11 9 60 -3 33 -2 60 3 60 4 0
24 -27 42 -60 23 -38 41 -60 53 -60 16 0 18 10 18 80 0 47 -4 80 -10 80 -6 0
-10 -27 -10 -60 0 -33 -3 -60 -7 -60 -5 0 -23 27 -42 60 -22 39 -41 60 -53 60
-16 0 -18 -9 -18 -80z"/>
<path d="M5020 480 c0 -97 18 -107 22 -12 l3 67 20 -65 c27 -87 46 -89 70 -10
10 34 22 63 27 66 4 3 8 -24 8 -60 0 -37 4 -66 10 -66 6 0 10 33 10 80 0 72
-2 80 -19 80 -14 0 -24 -16 -42 -65 -12 -36 -26 -62 -29 -58 -3 5 -14 34 -24
66 -13 44 -21 57 -37 57 -17 0 -19 -7 -19 -80z"/>
<path d="M5240 480 c0 -47 4 -80 10 -80 6 0 10 33 10 80 0 47 -4 80 -10 80 -6
0 -10 -33 -10 -80z"/>
<path d="M5490 480 l0 -80 44 0 c61 0 91 25 91 78 0 58 -25 82 -87 82 l-48 0
0 -80z m98 48 c17 -17 15 -74 -4 -92 -8 -9 -26 -16 -40 -16 -23 0 -24 3 -24
60 0 59 0 60 28 60 15 0 33 -5 40 -12z"/>
<path d="M6022 480 c-20 -54 -26 -80 -18 -80 7 0 18 12 24 26 10 21 18 25 45
22 24 -2 33 -8 35 -25 2 -13 10 -23 19 -23 8 0 13 6 11 13 -3 6 -16 42 -29 80
-32 91 -48 89 -87 -13z m63 8 c6 -24 4 -28 -14 -28 -22 0 -25 10 -15 48 8 27
20 19 29 -20z"/>
<path d="M6570 480 l0 -80 45 0 c25 0 45 5 45 10 0 6 -16 10 -35 10 -31 0 -35
3 -35 25 0 21 5 25 29 25 42 0 48 18 9 22 -25 2 -34 8 -36 26 -3 19 1 22 32
22 20 0 36 5 36 10 0 6 -20 10 -45 10 l-45 0 0 -80z"/>
<path d="M6683 548 c3 -7 16 -43 28 -80 31 -93 47 -90 80 12 20 61 23 80 13
80 -8 0 -21 -25 -31 -60 -10 -33 -21 -60 -24 -60 -3 0 -14 27 -24 60 -11 37
-24 60 -32 60 -8 0 -12 -6 -10 -12z"/>
<path d="M7340 480 l0 -80 44 0 c36 0 48 5 65 26 27 34 27 88 1 114 -14 14
-33 20 -65 20 l-45 0 0 -80z m99 29 c21 -38 -2 -83 -47 -87 l-32 -3 0 61 0 61
32 -3 c22 -2 37 -11 47 -29z"/>
<path d="M7510 481 c0 -63 3 -81 14 -81 9 0 12 7 9 20 -14 54 26 60 53 9 8
-16 22 -29 30 -29 14 0 13 5 -4 31 -18 30 -19 33 -3 60 23 42 7 63 -53 67
l-46 3 0 -80z m80 35 c0 -17 -7 -25 -25 -28 -30 -6 -35 -2 -35 29 0 19 5 23
30 23 25 0 30 -4 30 -24z"/>
<path d="M7803 480 c-22 -57 -27 -80 -17 -80 7 0 16 9 19 20 5 15 15 20 45 20
29 0 39 -4 43 -20 3 -11 11 -20 17 -20 7 0 10 6 8 13 -3 6 -16 42 -29 80 -32
91 -47 89 -86 -13z m62 8 c6 -24 4 -28 -14 -28 -22 0 -25 10 -15 48 8 27 20
19 29 -20z"/>
<path d="M5866 504 c-18 -18 -6 -54 19 -54 21 0 35 32 24 53 -12 21 -23 22
-43 1z"/>
</g>
</svg>
